<svg width="127" height="98" viewBox="0 0 127 98" fill="none" xmlns="http://www.w3.org/2000/svg">
<path d="M63 98C53.16 98 45.0977 95.52 38.7777 90.88C32.4577 86.16 28.98 79.22 28.5 70.5H53.5C53.74 73.46 54.7777 75.84 56.2977 77.2C57.8177 78.56 59.7777 79.24 62.1777 79.24C64.3377 79.24 66.0977 78.72 67.4577 77.68C68.8977 76.56 69.6177 75.04 69.6177 73.12C69.6177 70.64 68.4577 68.72 66.1377 67.36C63.8177 66 60.0577 64.48 54.8577 62.8C49.3377 60.96 44.8577 59.2 41.4177 57.52C38.0577 55.76 35.0977 53.24 32.5377 49.96C30.0577 46.6 28.8177 42.24 28.8177 36.88C28.8177 31.44 30.1777 26.8 32.8977 22.96C35.6177 19.04 39.3777 16.08 44.1777 14.08C48.9777 12.08 54.4177 11.08 60.4977 11.08C70.3377 11.08 78.1777 13.4 84.0177 18.04C89.9377 22.6 92.6 28.68 93 37L67.9377 37.36C67.8577 34.8 67.0577 32.88 65.5377 31.6C64.0977 30.32 62.2177 29.68 59.8977 29.68C58.1377 29.68 56.6977 30.2 55.5777 31.24C54.4577 32.28 53.8977 33.76 53.8977 35.68C53.8977 37.28 54.4977 38.68 55.6977 39.88C56.9777 41 58.5377 42 60.3777 42.88C62.2177 43.68 64.9377 44.72 68.5377 46C73.8977 47.84 78.2977 49.68 81.7377 51.52C85.2577 53.28 88.2577 55.8 90.7377 59.08C93.2977 62.28 94.5777 66.36 94.5777 71.32C94.5777 76.36 93.2977 80.88 90.7377 84.88C88.2577 88.88 84.6177 92.04 79.8177 94.36C75.0977 96.68 69.48 98 63 98Z" fill="black"/>
<path d="M63 98C53.16 98 45.0977 95.52 38.7777 90.88C32.4577 86.16 28.98 79.22 28.5 70.5H53.5C53.74 73.46 54.7777 75.84 56.2977 77.2C57.8177 78.56 59.7777 79.24 62.1777 79.24C64.3377 79.24 66.0977 78.72 67.4577 77.68C68.8977 76.56 69.6177 75.04 69.6177 73.12C69.6177 70.64 68.4577 68.72 66.1377 67.36C63.8177 66 60.0577 64.48 54.8577 62.8C49.3377 60.96 44.8577 59.2 41.4177 57.52C38.0577 55.76 35.0977 53.24 32.5377 49.96C30.0577 46.6 28.8177 42.24 28.8177 36.88C28.8177 31.44 30.1777 26.8 32.8977 22.96C35.6177 19.04 39.3777 16.08 44.1777 14.08C48.9777 12.08 54.4177 11.08 60.4977 11.08C70.3377 11.08 78.1777 13.4 84.0177 18.04C89.9377 22.6 92.6 28.68 93 37L67.9377 37.36C67.8577 34.8 67.0577 32.88 65.5377 31.6C64.0977 30.32 62.2177 29.68 59.8977 29.68C58.1377 29.68 56.6977 30.2 55.5777 31.24C54.4577 32.28 53.8977 33.76 53.8977 35.68C53.8977 37.28 54.4977 38.68 55.6977 39.88C56.9777 41 58.5377 42 60.3777 42.88C62.2177 43.68 64.9377 44.72 68.5377 46C73.8977 47.84 78.2977 49.68 81.7377 51.52C85.2577 53.28 88.2577 55.8 90.7377 59.08C93.2977 62.28 94.5777 66.36 94.5777 71.32C94.5777 76.36 93.2977 80.88 90.7377 84.88C88.2577 88.88 84.6177 92.04 79.8177 94.36C75.0977 96.68 69.48 98 63 98Z" fill="black"/>
<path d="M0 98H62L71 70.5H28.5L0 98Z" fill="black"/>
<path d="M52.5 43L51 12L126.5 0L80.5 51.5L52.5 43Z" fill="black"/>
<g filter="url(#filter0_d_19_314)">
<circle cx="58.5" cy="36.5" r="11.5" fill="#6C81FD"/>
</g>
<defs>
<filter id="filter0_d_19_314" x="38" y="16" width="41" height="41" filterUnits="userSpaceOnUse" color-interpolation-filters="sRGB">
<feFlood flood-opacity="0" result="BackgroundImageFix"/>
<feColorMatrix in="SourceAlpha" type="matrix" values="0 0 0 0 0 0 0 0 0 0 0 0 0 0 0 0 0 0 127 0" result="hardAlpha"/>
<feMorphology radius="3" operator="dilate" in="SourceAlpha" result="effect1_dropShadow_19_314"/>
<feOffset/>
<feGaussianBlur stdDeviation="3"/>
<feComposite in2="hardAlpha" operator="out"/>
<feColorMatrix type="matrix" values="0 0 0 0 0.566667 0 0 0 0 0.629425 0 0 0 0 1 0 0 0 0.53 0"/>
<feBlend mode="normal" in2="BackgroundImageFix" result="effect1_dropShadow_19_314"/>
<feBlend mode="normal" in="SourceGraphic" in2="effect1_dropShadow_19_314" result="shape"/>
</filter>
</defs>
</svg>
